<?xml version="1.0" encoding="iso-8859-1"?>
<!-- Generator: Adobe Illustrator 19.0.0, SVG Export Plug-In . SVG Version: 6.00 Build 0)  -->
<svg version="1.1" id="Capa_1" xmlns="http://www.w3.org/2000/svg" xmlns:xlink="http://www.w3.org/1999/xlink" x="0px" y="0px"
	 viewBox="0 0 490 490" style="enable-background:new 0 0 490 490;" xml:space="preserve">
<g>
	<g>
		<g>
			<path d="M83.75,128.6h63.3c11.2,0,20.4-9.2,20.4-20.4s-9.2-20.4-20.4-20.4h-63.3c-11.2,0-20.4,9.2-20.4,20.4
				S72.55,128.6,83.75,128.6z"/>
			<path d="M124.55,255.2h-18.4c-11.2,0-20.4,9.2-20.4,20.4s9.2,20.4,20.4,20.4h18.4c11.2,0,20.4-9.2,20.4-20.4
				S135.85,255.2,124.55,255.2z"/>
			<path d="M469.65,133.7h-238.9V20.4c0-11.2-9.2-20.4-20.4-20.4H20.45C9.25,0,0.05,9.2,0.05,20.4v449.2c0,11.2,9.2,20.4,20.4,20.4
				h189.9c11.2,0,20.4-9.2,20.4-20.4v-67.4h78.6v30.6h-43.9c-11.2,0-20.4,9.2-20.4,20.4s9.2,20.4,20.4,20.4h119.4
				c11.2,0,20.4-9.2,20.4-20.4s-9.2-20.4-20.4-20.4h-34.7v-30.6h119.4c11.2,0,20.4-9.2,20.4-20.4V154.1
				C490.05,142.9,480.85,133.7,469.65,133.7z M189.95,133.7h-1c-11.2,0-20.4,9.2-20.4,20.4v227.6c0,11.2,9.2,20.4,20.4,20.4h1v47
				h-149V40.8h149V133.7z M449.25,361.4h-239.9V174.6h239.9V361.4z"/>
		</g>
	</g>
</g>
<g>
</g>
<g>
</g>
<g>
</g>
<g>
</g>
<g>
</g>
<g>
</g>
<g>
</g>
<g>
</g>
<g>
</g>
<g>
</g>
<g>
</g>
<g>
</g>
<g>
</g>
<g>
</g>
<g>
</g>
</svg>
