<?xml version="1.0" encoding="iso-8859-1"?>
<!-- Generator: Adobe Illustrator 17.1.0, SVG Export Plug-In . SVG Version: 6.00 Build 0)  -->
<!DOCTYPE svg PUBLIC "-//W3C//DTD SVG 1.1//EN" "http://www.w3.org/Graphics/SVG/1.1/DTD/svg11.dtd">
<svg version="1.1" id="Capa_1" xmlns="http://www.w3.org/2000/svg" xmlns:xlink="http://www.w3.org/1999/xlink" x="0px" y="0px"
	 viewBox="0 0 348.165 348.165" style="enable-background:new 0 0 348.165 348.165;" xml:space="preserve">
<g>
	<g>
		<g>
			<g>
				<g>
					<g>
						<g>
							<path fill="white" d="M194.752,329.165c-5.5,0-9.98-4.43-9.98-9.93V257.66c0-5.5-4.52-10.495-10.02-10.495h-1.34
								c-5.5,0-9.641,4.995-9.641,10.495v61.576c0,5.5-4.859,9.93-10.359,9.93h-33.848c-5.5,0-10,3.223-10,7c0,3.776,4.5,7,10,7
								H228.6c5.5,0,10-3.224,10-7c0-3.777-4.5-7-10-7H194.752z"/>
						</g>
					</g>
				</g>
			</g>
		</g>
		<g>
			<g>
				<g>
					<g>
						<g>
							<path fill="white" d="M228.6,348.165H119.565c-8.271,0-15-5.383-15-12c0-6.617,6.729-12,15-12h33.848c2.855,0,5.359-2.304,5.359-4.93
								v-61.576c0-8.544,6.568-15.494,14.641-15.494h1.34c8.142,0,15.02,7.096,15.02,15.494v61.576c0,2.718,2.234,4.93,4.98,4.93
								H228.6c8.271,0,15,5.383,15,12C243.6,342.782,236.871,348.165,228.6,348.165z M119.565,334.165
								c-3.134,0-4.878,1.551-5.004,2.043c0.126,0.406,1.87,1.957,5.004,1.957H228.6c3.134,0,4.878-1.551,5.004-2.043
								c-0.126-0.406-1.87-1.957-5.004-1.957h-33.848c-8.26,0-14.98-6.697-14.98-14.93v-61.576c0-2.875-2.393-5.494-5.02-5.494
								h-1.34c-2.776,0-4.641,2.841-4.641,5.494v61.576c0,8.093-7.034,14.93-15.359,14.93H119.565z"/>
						</g>
					</g>
				</g>
			</g>
		</g>
	</g>
	<g>
		<g>
			<g>
				<g>
					<g>
						<path fill="white" d="M176.113,261.133h-4.063c-26.731,0-53.84-10.418-74.375-28.582
							c-22.478-19.879-35.371-47.499-35.371-75.775c0-8.284,6.716-15,15-15c8.284,0,15,6.716,15,15
							c0,19.686,9.202,39.114,25.246,53.304c15.127,13.38,34.991,21.054,54.5,21.054h4.063c19.51,0,39.374-7.674,54.5-21.053
							c16.045-14.191,25.247-33.619,25.247-53.305c0-8.284,6.716-15,15-15c8.284,0,15,6.716,15,15
							c0,28.275-12.892,55.895-35.371,75.776C229.954,250.715,202.845,261.133,176.113,261.133z"/>
					</g>
				</g>
			</g>
		</g>
	</g>
	<g>
		<g>
			<g>
				<g>
					<g>
						<path fill="white" d="M224.646,150.587c0,24.711-24.261,44.743-48.969,44.743h-3.187c-24.709,0-48.971-20.032-48.971-44.743V49.741
							C123.519,25.031,147.78,5,172.489,5h3.187c24.708,0,48.969,20.031,48.969,44.742V150.587z"/>
					</g>
				</g>
			</g>
		</g>
		<g>
			<g>
				<g>
					<g>
						<path fill="white" d="M175.676,200.33h-3.187c-28.751,0-53.971-23.244-53.971-49.742V49.741C118.519,23.243,143.738,0,172.49,0h3.187
							c28.75,0,53.969,23.243,53.969,49.741v100.847C229.646,177.086,204.426,200.33,175.676,200.33z M172.49,10
							c-23.013,0-43.971,18.942-43.971,39.741v100.847c0,20.8,20.958,39.742,43.971,39.742h3.187
							c23.012,0,43.969-18.942,43.969-39.742V49.741c0-20.799-20.958-39.741-43.969-39.741H172.49z"/>
					</g>
				</g>
			</g>
		</g>
	</g>
</g>
<g>
</g>
<g>
</g>
<g>
</g>
<g>
</g>
<g>
</g>
<g>
</g>
<g>
</g>
<g>
</g>
<g>
</g>
<g>
</g>
<g>
</g>
<g>
</g>
<g>
</g>
<g>
</g>
<g>
</g>
</svg>
