<?xml version="1.0" encoding="iso-8859-1"?>
<!-- Uploaded to: SVG Repo, www.svgrepo.com, Generator: SVG Repo Mixer Tools -->
<svg fill="#000000" height="800px" width="800px" version="1.1" id="Layer_1" xmlns="http://www.w3.org/2000/svg" xmlns:xlink="http://www.w3.org/1999/xlink" 
	 viewBox="0 0 512 512" xml:space="preserve">
<g>
	<g>
		<path d="M191.327,253.305h-45.81v-26.947h35.032c4.465,0,8.084-3.62,8.084-8.084c0-4.465-3.62-8.084-8.084-8.084h-35.032v-26.947
			h45.81c4.465,0,8.084-3.62,8.084-8.084s-3.62-8.084-8.084-8.084h-53.895c-4.465,0-8.084,3.62-8.084,8.084v35.032H92.275
			l7.758-7.758c3.157-3.157,3.157-8.276,0-11.432c-3.157-3.157-8.276-3.157-11.432,0l-21.558,21.558
			c-0.262,0.261-0.493,0.54-0.711,0.827c-0.051,0.067-0.099,0.134-0.148,0.202c-0.424,0.593-0.758,1.228-1.002,1.891
			c-0.024,0.066-0.046,0.131-0.069,0.197c-0.112,0.331-0.209,0.665-0.277,1.006c-0.001,0.008-0.004,0.015-0.005,0.024
			c-0.068,0.345-0.107,0.692-0.129,1.041c-0.005,0.083-0.009,0.166-0.012,0.25c-0.012,0.346-0.01,0.692,0.023,1.036
			c0,0.005,0,0.01,0.001,0.015c0.033,0.355,0.099,0.706,0.18,1.055c0.017,0.073,0.034,0.146,0.054,0.219
			c0.093,0.354,0.203,0.704,0.344,1.044c0.001,0.001,0.001,0.003,0.001,0.004c0.002,0.005,0.005,0.01,0.008,0.014
			c0.137,0.329,0.302,0.648,0.484,0.959c0.037,0.064,0.072,0.126,0.111,0.188c0.186,0.301,0.389,0.595,0.62,0.874
			c0.025,0.03,0.054,0.057,0.079,0.087c0.144,0.17,0.291,0.34,0.452,0.5l21.558,21.558c1.577,1.578,3.645,2.367,5.715,2.367
			s4.138-0.789,5.716-2.368c3.157-3.157,3.157-8.276,0-11.432l-7.758-7.758h37.073v35.032c0,4.465,3.62,8.084,8.084,8.084h53.895
			c4.465,0,8.084-3.62,8.084-8.084C199.411,256.925,195.791,253.305,191.327,253.305z"/>
	</g>
</g>
<g>
	<g>
		<path d="M276.884,218.274l28.699-38.265c2.679-3.572,1.955-8.639-1.617-11.318c-3.571-2.679-8.639-1.954-11.318,1.617
			l-25.87,34.493l-25.869-34.493c-2.679-3.571-7.745-4.295-11.318-1.617c-3.572,2.679-4.295,7.746-1.617,11.318l28.699,38.265
			l-28.699,38.265c-2.679,3.572-1.955,8.639,1.617,11.318c1.454,1.091,3.156,1.617,4.844,1.617c2.458,0,4.886-1.117,6.474-3.234
			l25.869-34.493l25.87,34.493c1.589,2.118,4.016,3.234,6.474,3.234c1.687,0,3.39-0.527,4.844-1.617
			c3.572-2.679,4.295-7.746,1.617-11.318L276.884,218.274z"/>
	</g>
</g>
<g>
	<g>
		<path d="M342.232,167.074c-4.465,0-8.084,3.62-8.084,8.084v86.232c0,4.465,3.62,8.084,8.084,8.084c4.465,0,8.084-3.62,8.084-8.084
			v-86.232C350.316,170.693,346.696,167.074,342.232,167.074z"/>
	</g>
</g>
<g>
	<g>
		<path d="M439.242,167.074h-43.116c-4.465,0-8.084,3.62-8.084,8.084s3.62,8.084,8.084,8.084H409.6v78.147
			c0,4.465,3.62,8.084,8.084,8.084s8.084-3.62,8.084-8.084v-78.147h13.474c4.465,0,8.084-3.62,8.084-8.084
			S443.707,167.074,439.242,167.074z"/>
	</g>
</g>
<g>
	<g>
		<path d="M503.916,91.621H339.537V45.811c0-4.465-3.62-8.084-8.084-8.084h-97.01c-4.465,0-8.084,3.62-8.084,8.084v45.811H83.537
			c-2.764,0-5.337,1.412-6.821,3.745L1.264,213.934c-1.685,2.648-1.685,6.032,0,8.68l75.453,118.568
			c1.484,2.332,4.056,3.744,6.821,3.744h142.821V466.19c0,4.465,3.62,8.084,8.084,8.084h97.01c4.465,0,8.084-3.62,8.084-8.084
			V344.926h164.379c4.465,0,8.084-3.62,8.084-8.084V99.705C512,95.241,508.381,91.621,503.916,91.621z M323.369,458.105h-80.842
			V344.926h48.505v35.032c0,4.465,3.62,8.084,8.084,8.084s8.084-3.62,8.084-8.084v-35.032h16.168V458.105z M495.832,328.758H87.975
			L17.667,218.274L87.975,107.79h166.4c4.465,0,8.084-3.62,8.084-8.084c0-4.465-3.62-8.084-8.084-8.084h-11.848V53.895h80.842
			v37.726h-36.972c-4.465,0-8.084,3.62-8.084,8.084c0,4.465,3.62,8.084,8.084,8.084h209.435V328.758z"/>
	</g>
</g>
</svg>