<?xml version="1.0" standalone="no"?>
<!DOCTYPE svg PUBLIC "-//W3C//DTD SVG 20010904//EN"
 "http://www.w3.org/TR/2001/REC-SVG-20010904/DTD/svg10.dtd">
<svg version="1.0" xmlns="http://www.w3.org/2000/svg"
 width="1080.000000pt" height="1080.000000pt" viewBox="0 0 1080.000000 1080.000000"
 preserveAspectRatio="xMidYMid meet">
<metadata>
Created by potrace 1.14, written by Peter Selinger 2001-2017
</metadata>
<g transform="translate(0.000000,1080.000000) scale(0.100000,-0.100000)"
fill="#000000" stroke="none">
<path d="M6073 8425 c-20 -19 -41 -35 -45 -35 -4 0 -8 -7 -8 -16 0 -8 -4 -13
-8 -10 -4 2 -22 -10 -40 -29 l-33 -33 48 -79 c26 -43 51 -80 56 -81 4 -2 5 -8
1 -13 -3 -5 0 -9 5 -9 6 0 11 -6 11 -14 0 -22 17 -28 39 -16 18 9 25 2 65 -54
26 -35 46 -69 46 -75 0 -6 5 -11 10 -11 6 0 10 -5 10 -10 0 -29 -281 151 -389
249 l-33 31 -72 -38 c-39 -20 -73 -40 -76 -43 -3 -3 -24 -14 -47 -24 -28 -12
-43 -25 -43 -37 0 -10 5 -18 10 -18 6 0 9 -3 8 -7 -1 -5 13 -39 32 -76 32 -63
37 -68 61 -63 23 4 29 -1 53 -44 15 -27 27 -53 27 -57 0 -5 6 -15 13 -23 6 -8
18 -28 26 -45 8 -16 25 -47 37 -67 13 -21 20 -38 17 -38 -4 0 -1 -7 6 -15 13
-15 5 -39 -11 -30 -26 17 -16 -61 12 -85 3 -3 18 -31 34 -62 16 -32 33 -58 37
-58 11 0 80 39 99 56 9 8 19 11 22 7 4 -3 7 -1 7 6 0 7 5 9 10 6 6 -3 13 1 16
10 4 9 13 14 20 11 8 -3 14 1 14 9 0 8 8 12 19 10 15 -3 19 1 15 19 -3 19 -37
86 -77 151 -7 11 -13 21 -14 23 0 2 -11 -3 -23 -10 -18 -11 -22 -11 -31 4 -5
9 -15 23 -22 31 -17 18 -79 140 -70 135 46 -20 270 -135 308 -158 28 -16 57
-33 65 -37 8 -4 27 -16 42 -27 25 -18 29 -18 45 -4 10 9 28 19 41 22 12 4 22
12 22 17 0 6 5 7 10 4 6 -3 10 -1 10 5 0 6 5 8 10 5 6 -3 13 1 16 9 3 9 10 13
15 10 5 -3 9 0 9 6 0 6 5 8 10 5 25 -15 18 27 -11 76 -39 65 -211 307 -233
330 -21 20 -20 39 1 54 15 11 8 26 -71 149 -49 75 -90 136 -92 136 -2 0 -21
-16 -41 -35z"/>
<path d="M7430 8386 c0 -4 -7 -6 -15 -2 -8 3 -15 1 -15 -3 0 -5 -8 -8 -17 -6
-10 1 -28 -4 -41 -12 -12 -7 -27 -11 -32 -8 -6 3 -10 1 -10 -6 0 -7 -10 -9
-24 -7 -17 4 -23 1 -19 -8 3 -9 -2 -12 -16 -9 -12 2 -21 -1 -21 -6 0 -6 -5 -7
-12 -3 -7 4 -8 3 -4 -4 4 -7 -3 -16 -18 -22 -14 -5 -35 -19 -46 -30 -11 -11
-25 -18 -31 -15 -5 4 -8 1 -7 -6 2 -7 -2 -13 -9 -14 -6 0 -15 -4 -20 -9 -5 -6
-2 -6 7 -1 13 8 13 7 1 -9 -8 -9 -21 -14 -29 -11 -13 5 -13 3 -1 -12 9 -11 10
-14 2 -9 -8 4 -13 2 -13 -4 0 -7 -7 -9 -16 -6 -14 5 -15 4 -5 -8 11 -13 9 -15
-9 -11 -18 3 -20 2 -10 -10 10 -12 9 -15 -3 -15 -10 0 -14 -6 -11 -14 3 -7 -7
-24 -23 -36 -15 -13 -20 -20 -11 -17 15 5 16 3 6 -18 -6 -13 -16 -22 -22 -18
-6 3 -8 2 -3 -2 4 -5 0 -19 -9 -33 -11 -17 -12 -22 -3 -16 11 6 12 5 2 -8 -7
-8 -10 -18 -6 -21 3 -4 1 -7 -6 -7 -7 0 -9 -4 -6 -10 3 -5 1 -10 -5 -10 -6 0
-9 -4 -6 -9 3 -5 -1 -12 -9 -15 -12 -4 -13 -10 -6 -23 10 -20 -10 -59 -23 -45
-4 4 -6 0 -4 -8 2 -8 8 -18 13 -22 6 -5 5 -8 -2 -8 -7 0 -13 -9 -13 -20 0 -11
-4 -20 -9 -20 -6 0 -8 -9 -6 -20 2 -11 0 -20 -6 -20 -5 0 -9 -7 -9 -15 0 -22
-22 -65 -31 -60 -11 7 -40 -36 -32 -48 3 -6 2 -8 -3 -5 -12 6 -44 -28 -36 -38
4 -5 -1 -2 -11 6 -10 7 -17 9 -16 4 4 -22 -2 -34 -16 -34 -9 0 -18 -7 -21 -15
-4 -8 -10 -13 -14 -10 -4 3 -11 -2 -14 -11 -3 -8 -10 -12 -16 -9 -5 3 -10 1
-10 -5 0 -7 -7 -9 -16 -6 -8 3 -13 2 -11 -2 8 -12 -16 -27 -41 -26 -13 1 -29
-8 -38 -20 -13 -18 -16 -19 -25 -6 -9 13 -10 12 -5 -2 3 -10 1 -18 -5 -18 -6
0 -7 -6 -3 -12 5 -8 2 -8 -10 1 -15 12 -17 12 -14 0 2 -8 -4 -14 -12 -14 -8 0
-21 -7 -28 -15 -12 -13 -13 -13 -7 0 4 10 2 9 -8 -2 -8 -10 -18 -14 -22 -10
-5 4 -5 -2 -1 -12 5 -15 4 -17 -8 -7 -11 9 -15 8 -20 -5 -4 -10 -13 -14 -25
-11 -13 3 -18 0 -15 -8 4 -8 -6 -16 -26 -20 -17 -4 -29 -9 -26 -12 3 -4 -2
-12 -12 -19 -12 -9 -21 -9 -30 -1 -7 5 -12 6 -11 1 3 -19 -1 -34 -12 -34 -5 0
-7 6 -3 13 4 6 -2 4 -13 -5 -11 -10 -25 -18 -32 -18 -7 0 -10 -4 -6 -9 3 -6
-3 -8 -14 -6 -11 2 -22 -3 -25 -12 -4 -8 -13 -13 -21 -9 -8 3 -15 1 -15 -5 0
-6 -7 -8 -16 -5 -8 3 -12 2 -9 -4 6 -9 -8 -14 -28 -11 -4 0 -6 -5 -5 -11 2 -7
-3 -12 -10 -10 -7 1 -15 -5 -18 -13 -4 -8 -10 -15 -16 -15 -5 0 -6 6 -2 13 4
7 3 9 -2 4 -5 -5 -9 -14 -9 -20 -1 -7 -7 -11 -14 -9 -8 2 -22 -5 -32 -14 -10
-9 -23 -13 -29 -9 -6 3 -9 1 -8 -6 2 -7 -8 -13 -24 -13 -14 -1 -38 -11 -51
-23 -19 -16 -28 -18 -37 -10 -8 9 -10 8 -5 -5 5 -14 2 -18 -13 -18 -11 0 -28
-7 -36 -16 -9 -8 -16 -12 -16 -8 0 4 -11 -3 -24 -15 -18 -17 -25 -19 -29 -9
-4 8 -6 7 -6 -5 -1 -10 -6 -15 -12 -12 -5 4 -19 -1 -29 -10 -10 -9 -24 -14
-30 -10 -6 3 -9 1 -8 -6 2 -7 -8 -13 -24 -13 -14 -1 -38 -11 -51 -23 -19 -16
-28 -18 -37 -10 -8 9 -10 8 -5 -5 5 -13 2 -18 -10 -18 -9 0 -31 -10 -48 -22
-17 -12 -27 -17 -24 -11 4 7 3 15 -3 18 -6 4 -9 1 -8 -6 2 -8 -12 -21 -29 -30
-18 -9 -29 -20 -25 -24 4 -4 -4 -2 -17 5 -15 8 -21 8 -17 1 4 -6 4 -16 0 -22
-4 -8 -9 -7 -15 2 -7 11 -9 11 -9 1 0 -7 -4 -11 -9 -7 -6 3 -14 -2 -19 -11 -5
-9 -12 -15 -15 -15 -27 4 -47 -1 -42 -9 3 -5 0 -7 -8 -4 -8 3 -17 -3 -21 -13
-6 -15 -8 -15 -16 -3 -6 9 -10 10 -10 3 0 -6 -9 -10 -19 -8 -15 3 -18 0 -14
-12 5 -12 2 -15 -9 -10 -10 3 -19 0 -22 -8 -3 -9 -12 -12 -22 -8 -10 4 -20 0
-26 -10 -4 -9 -15 -14 -23 -11 -8 4 -15 1 -15 -6 0 -10 -3 -10 -15 0 -13 11
-14 10 -9 -4 4 -11 1 -16 -10 -16 -9 0 -25 -4 -36 -10 -11 -5 -29 -14 -40 -20
-11 -5 -27 -10 -35 -10 -8 0 -15 -5 -15 -11 0 -8 -5 -7 -16 1 -12 11 -15 11
-12 -1 2 -8 -3 -13 -10 -11 -7 1 -35 -8 -62 -21 -27 -13 -47 -20 -44 -16 2 4
0 11 -6 14 -6 4 -9 1 -8 -7 2 -7 -5 -12 -14 -12 -10 1 -16 -2 -13 -6 3 -5 1
-11 -5 -15 -5 -3 -10 0 -10 7 0 9 -3 9 -10 -2 -5 -8 -10 -11 -10 -6 0 5 -9 1
-19 -8 -13 -12 -21 -14 -26 -6 -4 7 -15 3 -32 -10 -19 -15 -29 -17 -39 -10 -9
8 -16 6 -26 -8 -7 -10 -23 -18 -35 -17 -13 1 -23 -1 -23 -4 0 -7 -49 -31 -63
-31 -4 0 -5 6 -2 13 4 6 -1 3 -10 -8 -14 -17 -17 -18 -25 -5 -8 13 -10 12 -10
-2 0 -11 -5 -15 -15 -12 -8 4 -15 1 -15 -5 0 -6 -5 -11 -11 -11 -5 0 -7 6 -3
13 6 9 5 9 -8 0 -8 -7 -18 -10 -21 -6 -4 3 -7 1 -7 -6 0 -7 -4 -10 -9 -6 -5 3
-12 1 -15 -4 -4 -5 -17 -8 -31 -7 -13 2 -22 -1 -19 -6 4 -5 -4 -8 -17 -7 -13
2 -34 -2 -46 -9 -28 -15 -36 -15 -28 1 4 6 0 4 -8 -5 -11 -14 -16 -15 -27 -5
-9 9 -11 9 -6 0 3 -6 2 -14 -4 -18 -5 -3 -10 0 -10 7 0 10 -2 10 -9 -1 -5 -8
-16 -11 -25 -8 -9 4 -16 3 -16 -2 0 -4 -6 -8 -12 -9 -7 0 -26 -3 -41 -7 -21
-4 -27 -2 -22 7 4 7 1 6 -7 -2 -13 -15 -35 -21 -70 -21 -10 0 -18 -6 -18 -12
0 -7 -4 -6 -10 3 -5 8 -10 10 -10 5 0 -6 -15 -10 -32 -10 -18 0 -38 -3 -43 -7
-6 -3 -28 -8 -50 -10 -22 -2 -45 -7 -50 -10 -6 -3 -34 -5 -63 -4 -28 0 -52 -3
-52 -7 0 -5 -9 -5 -20 -2 -12 4 -20 2 -20 -6 0 -8 -5 -8 -17 2 -9 8 -14 9 -11
4 6 -10 -28 -13 -199 -19 -24 0 -43 -3 -43 -6 0 -4 -82 -4 -235 1 -22 0 -44 0
-50 -1 -5 -1 -13 -2 -17 -1 -5 0 -47 4 -95 7 -136 9 -137 10 -162 23 -14 8
-21 9 -17 2 4 -6 2 -11 -3 -11 -6 0 -11 3 -11 8 0 4 -17 8 -38 9 -20 1 -50 4
-67 8 -16 3 -40 7 -51 8 -12 2 -30 9 -40 17 -11 9 -15 10 -10 3 9 -17 3 -16
-39 1 -19 8 -35 11 -35 5 0 -5 -9 -4 -19 3 -11 7 -17 16 -14 21 3 5 -4 4 -15
-2 -14 -7 -23 -8 -27 -1 -3 5 -19 10 -36 10 -16 0 -29 4 -29 9 0 5 -13 8 -30
7 -16 -1 -30 2 -30 7 0 4 -5 5 -10 2 -5 -3 -10 2 -10 12 0 15 -2 16 -10 3 -5
-8 -10 -10 -10 -3 0 6 -8 10 -17 9 -10 -2 -23 4 -30 13 -8 10 -12 11 -13 4 0
-7 -7 -10 -15 -7 -8 4 -12 10 -9 15 3 5 2 9 -3 8 -22 -4 -44 2 -38 10 3 6 -3
8 -15 6 -11 -2 -22 1 -25 6 -4 5 -12 6 -18 3 -7 -4 -9 -4 -5 0 4 5 1 14 -5 21
-9 10 -15 10 -26 1 -10 -7 -13 -8 -8 0 12 20 -34 52 -80 56 -7 1 -11 6 -10 12
1 5 -4 10 -11 11 -7 0 -22 11 -33 25 -12 14 -18 19 -14 13 4 -9 1 -11 -9 -7
-9 3 -13 11 -9 17 4 6 0 8 -10 4 -17 -6 -21 2 -18 33 2 13 1 13 -9 0 -8 -11
-13 -12 -16 -3 -3 7 -12 9 -20 6 -9 -3 -14 1 -14 13 0 16 -2 17 -10 4 -8 -13
-10 -12 -10 3 0 10 -5 15 -10 12 -6 -4 -16 -2 -23 3 -7 6 -16 12 -22 14 -5 1
-9 7 -7 12 2 5 -5 3 -14 -5 -12 -9 -15 -9 -10 -1 8 13 -6 15 -109 13 -33 0
-61 -5 -63 -11 -2 -5 -8 -8 -12 -5 -5 3 -12 0 -16 -6 -4 -8 -3 -9 4 -5 7 4 12
2 12 -3 0 -6 -4 -12 -10 -12 -5 -1 -14 -3 -20 -4 -5 -1 -13 -3 -17 -4 -5 -1
-1 -6 7 -12 12 -9 10 -10 -8 -6 -20 5 -22 3 -10 -11 7 -9 9 -13 3 -10 -5 3
-19 -4 -30 -15 -11 -11 -14 -17 -6 -12 9 5 12 3 9 -6 -3 -8 -10 -14 -15 -14
-6 0 -15 -4 -20 -9 -5 -5 -3 -6 5 -2 6 4 12 2 12 -3 0 -6 -5 -11 -11 -11 -7 0
-9 -9 -6 -21 4 -17 3 -18 -9 -8 -12 10 -13 9 -8 -6 5 -12 1 -23 -11 -31 -18
-13 -18 -14 -1 -14 14 0 16 -3 7 -13 -6 -8 -12 -22 -14 -33 -1 -10 -7 -25 -11
-33 -7 -10 -6 -12 4 -6 10 6 11 4 4 -6 -4 -8 -10 -21 -12 -29 -8 -33 -7 -616
1 -627 5 -7 6 -17 2 -23 -3 -5 -2 -10 2 -10 5 0 9 -10 10 -22 1 -39 9 -83 16
-95 4 -5 8 -24 9 -42 1 -17 7 -31 12 -31 5 0 6 -3 3 -7 -4 -3 -1 -13 6 -21 10
-13 9 -14 -3 -7 -13 8 -13 7 -1 -9 8 -9 16 -29 17 -43 2 -14 6 -33 10 -42 4
-9 9 -27 11 -41 2 -14 9 -27 14 -28 6 -3 5 -9 -2 -18 -9 -11 -8 -14 4 -14 9 0
14 -7 13 -17 -2 -10 4 -24 13 -31 12 -10 12 -12 1 -6 -13 7 -13 6 -1 -9 8 -10
11 -20 8 -23 -3 -4 0 -13 8 -20 8 -8 12 -21 9 -28 -3 -8 0 -17 7 -22 8 -5 10
-3 4 6 -5 8 -4 11 3 6 6 -4 9 -13 5 -21 -3 -8 1 -15 8 -15 7 0 9 -3 6 -7 -4
-3 1 -15 10 -26 13 -15 14 -19 3 -13 -12 6 -12 5 1 -6 9 -7 14 -19 11 -27 -3
-8 0 -11 7 -7 7 5 11 -1 11 -13 0 -12 6 -21 13 -21 9 0 8 -3 -2 -9 -11 -7 -9
-10 7 -15 13 -4 19 -13 15 -22 -3 -7 0 -14 7 -14 6 0 8 -4 5 -10 -3 -6 0 -10
7 -10 9 0 9 -3 -2 -10 -13 -8 -12 -10 3 -10 10 0 15 -4 12 -10 -3 -6 -1 -10 5
-10 6 0 8 -4 5 -10 -3 -5 1 -10 9 -10 14 0 20 -12 17 -32 0 -5 4 -8 10 -8 5 0
7 -5 3 -12 -5 -8 -2 -9 10 -5 11 4 15 3 10 -4 -3 -6 3 -17 14 -25 12 -8 19
-21 16 -28 -3 -7 7 -21 21 -30 20 -13 24 -23 20 -39 -5 -17 -4 -19 4 -7 10 14
16 7 12 -14 -1 -5 5 -6 13 -3 11 4 14 0 11 -14 -4 -18 -2 -19 12 -7 9 7 14 8
10 2 -3 -6 5 -17 18 -24 13 -7 22 -17 19 -22 -3 -4 0 -8 6 -8 6 0 8 -4 5 -10
-3 -5 3 -10 15 -10 12 0 18 -4 15 -10 -3 -6 -1 -10 5 -10 6 0 8 -5 4 -12 -4
-6 -3 -8 3 -5 13 8 46 -27 36 -37 -5 -4 -3 -7 2 -6 21 5 36 0 30 -10 -3 -6 -1
-10 5 -10 6 0 8 -5 4 -12 -4 -6 -3 -8 3 -5 6 4 27 -9 47 -28 39 -37 51 -43 41
-22 -4 6 0 3 9 -7 8 -10 13 -23 10 -27 -3 -5 3 -6 12 -2 13 5 15 3 9 -7 -6
-10 -4 -12 9 -7 10 4 19 1 22 -8 4 -8 11 -15 16 -15 20 0 69 -43 64 -56 -3 -7
0 -16 6 -20 7 -4 8 -3 4 4 -4 7 -1 12 9 12 11 0 15 -5 11 -16 -3 -8 -2 -13 2
-11 4 3 16 -5 27 -16 11 -11 14 -16 6 -12 -9 5 -12 4 -7 -3 4 -7 12 -12 18
-12 12 0 63 -53 72 -75 3 -8 13 -15 23 -15 15 0 16 -2 3 -10 -13 -8 -13 -10 2
-10 12 0 16 -6 13 -20 -2 -11 -1 -18 4 -16 8 5 48 -83 43 -96 -1 -5 3 -8 10
-8 6 0 9 -3 6 -6 -4 -3 0 -17 7 -31 7 -14 12 -34 10 -44 -2 -11 0 -19 6 -19 5
0 9 -11 9 -24 0 -14 5 -28 11 -32 6 -3 9 -15 6 -25 -3 -11 -1 -19 5 -19 5 0 6
-10 3 -21 -5 -15 -4 -19 4 -15 10 7 16 -19 12 -53 -2 -8 2 -10 10 -6 8 6 10 1
7 -18 -3 -15 -1 -24 3 -21 8 5 13 -11 7 -19 -2 -2 5 -16 16 -31 10 -16 14 -26
9 -23 -5 4 -10 0 -10 -7 0 -9 7 -12 15 -8 11 4 14 1 9 -11 -3 -8 -1 -18 6 -21
9 -3 8 -8 -3 -16 -13 -9 -12 -10 5 -8 14 2 21 -3 23 -20 2 -13 8 -20 14 -16 7
5 8 2 4 -5 -5 -7 0 -21 11 -33 12 -14 13 -18 3 -13 -13 8 -13 6 -1 -8 7 -9 17
-15 21 -12 5 3 6 -5 3 -17 -4 -19 -3 -20 6 -8 9 12 11 10 11 -10 0 -20 2 -22
10 -10 9 13 10 13 10 0 0 -18 35 -51 45 -42 3 4 3 -2 -1 -12 -5 -12 -4 -17 3
-13 5 4 23 -9 38 -28 16 -18 34 -31 39 -27 6 3 5 -2 -3 -12 -8 -9 -10 -16 -5
-15 5 1 20 1 33 0 20 -1 22 -3 11 -16 -7 -9 -10 -18 -6 -22 3 -3 6 -1 6 5 0 6
7 9 15 6 8 -4 15 -12 15 -20 0 -8 5 -14 12 -14 6 0 8 -3 5 -6 -3 -4 -2 -15 4
-26 7 -14 7 -23 -2 -34 -7 -8 -8 -14 -3 -13 21 4 26 -2 13 -18 -12 -14 -12
-16 0 -9 11 7 13 0 9 -32 -2 -23 1 -38 6 -35 5 4 7 -1 3 -10 -3 -10 -2 -17 3
-17 6 0 6 -9 0 -25 -6 -15 -6 -26 0 -30 15 -9 12 -48 -2 -39 -7 4 -5 -1 4 -12
13 -15 15 -23 7 -31 -7 -7 -8 -13 0 -17 5 -4 8 -13 4 -21 -3 -8 -1 -15 5 -15
12 0 11 -18 -2 -39 -6 -10 -5 -12 2 -7 8 5 10 -8 8 -44 -1 -27 2 -50 7 -50 5
0 4 -7 -3 -15 -10 -12 -10 -15 0 -15 7 0 10 -7 7 -15 -4 -8 -2 -17 3 -20 6 -4
10 -11 10 -16 0 -6 -5 -7 -11 -3 -8 4 -8 1 -1 -12 5 -11 9 -58 8 -106 -1 -49
2 -88 6 -88 3 0 4 -9 1 -20 -3 -13 0 -20 8 -20 11 0 11 -2 -1 -10 -8 -5 -10
-10 -5 -10 13 0 16 -141 4 -157 -7 -7 -6 -13 0 -17 10 -6 9 -25 -4 -121 -4
-27 -8 -71 -8 -97 -1 -26 -4 -45 -7 -43 -3 2 -6 -11 -7 -28 0 -18 -4 -50 -8
-72 -4 -22 -8 -46 -8 -52 0 -7 -4 -13 -8 -13 -5 0 -5 -7 -2 -17 4 -10 2 -14
-5 -9 -7 4 -10 -1 -7 -14 2 -13 -2 -23 -11 -27 -13 -5 -13 -7 -2 -14 11 -8 11
-11 -1 -18 -7 -5 -10 -14 -7 -20 4 -6 3 -11 -3 -11 -5 0 -8 -12 -5 -26 4 -20
1 -25 -9 -21 -10 4 -13 -1 -9 -19 3 -16 0 -24 -9 -24 -10 0 -11 -2 -2 -8 8 -5
6 -17 -7 -44 -10 -21 -14 -42 -9 -49 4 -7 5 -18 1 -24 -19 -29 -17 -106 2
-117 8 -5 21 -14 28 -21 14 -14 60 -18 52 -5 -3 4 0 8 6 8 6 0 8 5 5 10 -4 6
-3 10 2 9 24 -4 53 2 48 11 -3 6 -1 11 4 11 12 2 26 5 39 9 4 1 10 2 15 1 4 0
7 4 7 11 0 6 3 8 7 5 3 -4 13 -1 21 6 13 10 14 9 7 -3 -8 -13 -6 -13 8 -1 9 7
24 11 32 7 9 -3 14 -2 11 3 -3 5 3 11 14 14 11 3 20 0 20 -6 0 -8 3 -8 8 -2 8
12 332 15 332 4 0 -5 9 -6 20 -4 11 2 26 -3 34 -11 9 -9 17 -10 21 -4 4 6 12
7 18 3 7 -4 23 -9 37 -11 13 -2 27 -7 30 -11 4 -6 19 -6 92 2 9 1 16 6 15 12
-1 5 3 9 10 8 7 -2 10 3 7 11 -3 8 0 17 5 21 12 7 44 72 45 90 1 6 9 17 18 26
10 9 14 20 10 25 -4 4 2 2 12 -6 11 -8 17 -10 13 -4 -4 7 0 17 8 24 13 11 15
10 10 -6 -4 -12 -1 -10 8 5 11 18 16 20 20 10 4 -11 6 -11 6 -1 1 7 6 10 11 7
6 -3 10 -2 10 4 0 5 11 8 25 7 14 -2 22 1 18 7 -4 6 4 8 21 5 14 -3 29 -1 32
4 3 4 10 6 15 3 5 -4 9 -1 9 6 0 8 3 9 14 0 10 -9 16 -8 26 4 10 12 16 13 29
3 9 -7 12 -8 8 -3 -4 5 7 16 25 25 18 9 32 22 30 29 -1 7 1 10 5 8 5 -3 14 1
21 9 7 8 10 14 5 14 -4 0 2 7 13 16 10 8 13 12 5 8 -10 -5 -13 -3 -8 9 4 12 2
14 -10 10 -9 -4 -14 -2 -11 3 7 11 -17 35 -26 27 -3 -4 -6 -1 -6 6 0 7 -5 9
-10 6 -6 -3 -10 -1 -10 4 0 6 -10 11 -22 11 -12 0 -30 7 -40 17 -14 12 -18 13
-18 3 0 -9 -5 -7 -16 6 -8 10 -13 13 -9 7 3 -7 1 -13 -4 -13 -6 0 -11 5 -11
11 0 5 -4 7 -10 4 -5 -3 -10 -2 -10 3 0 5 -10 8 -22 8 -14 -1 -22 4 -20 12 1
8 -2 11 -8 7 -6 -4 -18 -1 -27 7 -12 9 -15 9 -9 1 4 -7 2 -13 -3 -13 -6 0 -11
4 -11 8 0 5 -6 9 -12 10 -44 6 -58 9 -64 15 -4 4 -20 7 -36 7 -15 0 -28 4 -28
9 0 5 -13 8 -30 7 -16 -1 -30 2 -30 7 0 4 -4 5 -10 2 -5 -3 -10 1 -10 9 0 10
-6 13 -15 10 -8 -4 -22 -1 -30 6 -9 7 -19 10 -22 6 -4 -4 -13 4 -21 16 -7 13
-11 15 -8 6 4 -15 2 -16 -14 -6 -10 7 -16 17 -12 23 3 5 -3 3 -13 -5 -15 -12
-17 -12 -10 -1 6 11 4 13 -7 8 -9 -3 -23 2 -33 13 -10 11 -21 17 -26 14 -5 -2
-17 4 -29 16 -11 11 -30 20 -41 20 -19 0 -20 2 -8 17 10 11 10 14 2 9 -8 -4
-13 -2 -13 6 0 9 -3 9 -10 -2 -8 -13 -10 -12 -10 4 0 12 -5 16 -15 12 -8 -3
-15 -2 -15 3 0 5 -16 26 -36 47 -24 27 -34 46 -31 62 3 17 1 20 -8 12 -9 -8
-14 -6 -19 5 -4 11 -2 14 7 10 6 -4 4 0 -5 8 -10 8 -15 17 -11 20 3 4 2 7 -4
7 -6 0 -13 9 -16 20 -3 11 0 20 6 20 7 0 5 5 -3 10 -8 5 -15 13 -16 17 0 4 -5
26 -12 47 -6 22 -8 44 -5 49 3 6 1 7 -4 4 -6 -4 -14 0 -17 9 -4 10 -2 13 7 8
9 -6 9 -4 1 7 -6 8 -10 22 -9 32 2 9 -1 17 -7 17 -6 0 -4 7 3 17 10 11 10 14
2 9 -12 -7 -16 8 -16 67 0 9 -4 17 -9 17 -6 0 -8 7 -4 15 3 8 0 15 -7 15 -8 0
-6 4 3 10 8 5 10 10 4 10 -7 0 -14 9 -17 20 -3 11 -1 18 4 15 4 -3 4 7 -1 22
-6 15 -11 42 -13 58 -2 17 -7 37 -11 44 -5 8 -3 17 5 22 8 5 9 9 3 9 -13 0
-13 248 0 269 7 10 6 12 -4 6 -10 -6 -12 -4 -7 9 4 10 7 20 7 22 0 3 6 2 12
-2 7 -5 41 -9 76 -11 35 -1 71 -8 80 -15 9 -7 13 -8 9 -2 -4 8 33 10 123 10
72 -1 130 1 130 5 0 3 10 5 23 4 12 -1 25 3 29 9 5 7 8 7 8 -2 0 -8 5 -10 13
-5 6 4 31 9 53 10 40 3 89 10 89 13 0 8 53 5 63 -3 7 -6 12 -6 11 -1 -4 21 2
26 16 14 8 -7 15 -8 15 -2 0 5 9 12 20 15 12 3 18 1 14 -5 -4 -6 2 -6 14 1 11
6 28 8 36 5 9 -3 16 -2 16 2 0 5 15 10 33 12 32 2 70 9 75 12 1 2 10 3 20 4 9
1 23 5 30 9 7 5 12 3 12 -4 0 -10 3 -10 12 -1 7 7 24 12 38 12 14 0 32 6 39
12 11 11 12 10 6 -2 -7 -12 -6 -13 6 -3 12 10 18 10 29 0 10 -9 11 -9 6 0 -4
8 -2 13 6 14 7 0 22 2 33 4 21 3 98 14 125 18 8 2 21 6 28 10 7 5 12 3 12 -5
0 -8 3 -9 8 -3 4 6 24 11 46 12 21 1 46 9 55 17 24 21 45 2 30 -27 -6 -11 -7
-17 -2 -14 5 3 8 -52 7 -126 -1 -73 -3 -132 -4 -132 -7 0 -11 -58 -11 -160 1
-143 3 -175 11 -175 3 0 6 -21 8 -46 1 -26 5 -51 9 -58 8 -11 12 -28 15 -58 1
-10 6 -18 10 -18 4 0 5 -7 2 -15 -4 -9 0 -15 7 -15 12 0 12 -2 0 -9 -9 -6 -10
-11 -2 -15 6 -4 8 -12 5 -18 -4 -6 -2 -8 3 -5 16 10 24 -18 10 -32 -7 -7 -7
-12 -2 -11 22 5 27 -1 14 -17 -10 -11 -10 -14 -1 -9 7 4 12 2 12 -4 0 -6 4 -9
9 -6 5 4 8 -5 6 -19 -1 -14 0 -23 3 -20 8 8 34 -34 27 -44 -3 -5 0 -13 6 -17
8 -5 9 -3 4 7 -7 12 -6 12 6 1 8 -7 14 -18 14 -25 1 -7 5 -11 11 -10 5 1 11
-8 11 -20 1 -12 7 -23 13 -25 5 -2 10 -10 10 -18 0 -8 8 -14 17 -14 15 0 14
-2 -3 -15 -18 -13 -18 -14 5 -8 21 5 23 3 19 -15 -3 -12 -3 -21 1 -20 20 2 31
-3 26 -13 -4 -6 3 -20 15 -31 18 -17 19 -22 8 -30 -10 -8 -10 -9 2 -5 9 3 24
-1 35 -9 14 -10 15 -14 4 -14 -8 -1 -5 -6 9 -13 18 -10 20 -15 10 -26 -11 -10
-10 -12 2 -9 8 2 14 -2 13 -9 -2 -8 4 -10 14 -6 11 4 14 3 9 -5 -4 -7 -2 -12
4 -12 6 0 8 -4 5 -10 -3 -5 -1 -10 5 -10 6 0 18 -6 26 -14 11 -11 11 -16 1
-19 -9 -4 -9 -6 1 -6 7 -1 10 -6 7 -11 -4 -6 -3 -10 2 -9 20 3 34 -2 28 -11
-3 -5 -1 -10 5 -10 6 0 8 -5 4 -12 -4 -6 -3 -8 3 -5 13 8 46 -27 36 -37 -5 -4
-3 -7 2 -6 20 4 36 0 31 -8 -3 -5 4 -14 14 -22 10 -8 17 -17 14 -22 -3 -4 3
-5 12 -1 14 5 16 3 11 -12 -6 -14 -4 -15 5 -7 15 11 42 -10 30 -24 -4 -4 -2
-4 4 -1 6 4 25 2 42 -2 26 -8 30 -7 25 7 -4 9 -2 13 4 9 10 -7 28 19 25 36 -1
4 3 7 9 7 5 0 7 4 4 10 -8 13 19 52 31 42 4 -4 2 1 -5 10 -9 13 -10 18 -2 18
6 0 16 10 21 23 5 12 9 16 9 8 1 -9 8 -6 21 9 11 13 20 18 20 11 0 -7 5 -9 13
-4 18 11 60 12 74 1 7 -5 13 -5 17 0 7 11 206 10 223 -1 6 -4 14 -3 17 2 4 5
32 10 64 10 79 1 105 6 110 19 2 7 10 12 18 12 9 0 12 5 9 10 -3 6 -1 10 5 10
6 0 9 16 8 40 -2 22 -6 40 -10 40 -5 0 -8 9 -8 20 0 11 -6 20 -12 20 -10 0
-10 2 -1 8 7 4 9 13 4 21 -17 26 26 77 62 72 4 -1 7 3 7 8 0 5 11 8 25 7 13
-2 22 1 19 6 -4 6 5 8 18 6 14 -1 33 4 44 12 16 13 17 13 9 0 -7 -12 -6 -13 7
-3 8 7 18 10 21 6 4 -3 7 1 7 10 0 16 12 22 34 18 5 -1 6 5 3 14 -4 8 -3 15 1
15 4 0 8 9 8 19 0 11 -5 19 -11 18 -5 -1 -9 7 -7 18 2 15 0 16 -6 7 -7 -11
-12 -11 -24 2 -9 8 -18 12 -22 9 -3 -4 -6 -1 -6 6 0 8 -7 11 -15 7 -8 -3 -15
0 -15 7 0 8 -3 8 -9 -2 -5 -8 -11 -9 -15 -3 -3 6 -16 8 -28 4 -15 -4 -19 -2
-13 7 6 10 3 11 -14 2 -17 -10 -22 -9 -27 3 -5 12 -11 13 -25 5 -10 -5 -19 -6
-19 -2 0 5 -18 8 -40 8 -22 0 -40 3 -40 8 0 4 -5 5 -10 2 -6 -4 -16 -3 -23 2
-7 5 -29 8 -49 8 -21 -1 -38 2 -38 7 0 4 -6 5 -14 2 -8 -3 -16 -1 -19 3 -3 5
-20 8 -36 7 -17 -1 -31 1 -31 5 0 4 -10 7 -22 8 -46 2 -78 8 -78 14 0 3 -12 5
-27 5 -16 -1 -34 3 -41 8 -7 5 -29 11 -49 13 -20 2 -45 9 -56 14 -15 9 -18 8
-11 -3 6 -10 5 -11 -7 -1 -8 6 -25 13 -39 15 -14 1 -27 6 -30 10 -3 3 -21 9
-40 11 -19 3 -36 6 -37 7 -4 3 -20 7 -34 9 -5 0 -8 5 -5 10 3 4 -6 6 -20 3
-17 -3 -30 2 -40 14 -9 11 -13 13 -9 7 3 -7 1 -13 -4 -13 -6 0 -11 4 -11 9 0
4 -10 8 -22 7 -14 -1 -22 4 -20 12 2 9 -4 11 -18 7 -12 -4 -20 -2 -20 5 0 6
-4 8 -10 5 -5 -3 -10 0 -10 7 0 9 -3 9 -10 -2 -6 -10 -10 -11 -10 -2 0 6 -7
12 -16 12 -8 0 -12 5 -9 11 4 6 0 9 -11 7 -11 -2 -18 2 -17 10 2 6 -2 12 -8
12 -5 0 -7 6 -3 13 5 7 0 6 -11 -3 -10 -8 -16 -10 -13 -5 7 12 -17 37 -26 28
-6 -6 -10 12 -7 30 0 4 -7 7 -17 7 -14 0 -15 2 -2 10 13 8 13 10 -2 10 -9 0
-20 5 -24 12 -4 7 -3 8 4 4 8 -5 10 -2 6 8 -3 9 -10 13 -15 10 -8 -4 -14 25
-10 49 0 4 -4 7 -10 7 -8 0 -8 4 0 14 7 8 8 17 3 20 -11 6 -10 276 1 293 4 6
3 14 -3 18 -7 4 -6 13 1 27 8 16 8 19 -1 13 -9 -6 -9 -2 -1 14 7 12 9 26 6 31
-3 6 -3 10 2 10 4 0 8 35 8 78 -1 83 19 138 49 136 9 -1 16 3 16 8 0 6 7 8 15
4 9 -3 15 0 15 10 0 9 7 14 17 12 10 -2 18 2 18 9 0 7 6 18 14 25 12 11 13 11
6 -1 -6 -10 -4 -12 4 -7 7 5 10 15 7 23 -3 8 -2 12 3 9 5 -3 12 1 15 10 3 8
14 14 23 12 12 -2 17 3 15 14 -1 9 7 23 18 31 11 7 17 17 12 22 -4 5 -1 5 6 1
7 -4 12 -1 12 8 0 8 4 18 10 21 6 3 8 -2 5 -12 -3 -10 1 -6 8 10 7 15 17 24
21 20 4 -4 4 1 0 11 -5 13 -4 17 4 12 8 -5 10 -2 6 8 -4 11 0 16 12 17 18 0
17 1 -1 9 -18 7 -19 8 -2 15 9 4 17 13 17 20 0 8 8 16 18 18 16 4 16 5 -1 6
-15 1 -15 3 4 22 11 11 18 27 15 35 -3 8 0 17 8 20 7 3 13 17 14 31 0 14 4 28
9 32 13 8 33 68 26 75 -4 3 -1 6 6 6 7 0 9 5 6 10 -3 6 -1 10 5 10 6 0 8 4 5
10 -3 6 -1 10 5 10 6 0 10 6 8 13 -4 23 13 58 25 50 9 -5 9 -3 0 8 -7 9 -8 20
-3 29 5 8 6 18 4 22 -3 4 -1 8 5 8 6 0 8 7 5 15 -4 8 -1 15 7 15 7 0 9 3 6 7
-4 3 0 17 9 31 9 13 11 21 5 18 -6 -4 -11 -3 -11 3 0 5 5 11 11 13 7 2 13 17
15 33 2 15 7 31 11 34 4 3 8 12 9 19 1 6 2 21 3 33 0 11 5 18 9 15 4 -2 9 7
10 22 1 15 7 29 12 30 6 2 10 8 10 13 0 6 -5 7 -11 4 -7 -5 -7 -2 0 11 5 11
12 27 15 37 3 10 9 16 14 13 4 -2 9 4 9 15 1 12 -3 17 -10 13 -7 -3 -2 3 11
15 14 12 18 22 12 26 -7 5 -5 12 7 21 10 7 14 14 10 14 -4 0 -2 10 5 23 7 12
13 27 13 34 0 7 9 20 20 28 11 9 14 14 8 10 -19 -9 -16 6 5 22 9 8 12 12 5 9
-8 -5 -8 0 0 18 7 13 16 22 21 19 5 -4 7 1 3 10 -3 10 -2 17 3 17 5 0 13 12
16 26 4 15 12 23 19 20 8 -3 11 2 8 15 -3 12 1 21 12 25 13 5 14 9 3 15 -10 7
-9 9 4 9 9 0 20 5 24 12 4 7 3 8 -4 4 -8 -5 -10 -1 -6 9 4 9 13 14 20 11 9 -3
11 0 7 11 -4 11 -2 14 5 9 8 -5 10 -1 5 10 -4 12 -3 15 5 10 8 -4 12 0 12 11
1 22 19 48 40 56 10 4 11 6 2 6 -8 1 -2 11 13 27 14 14 22 30 19 36 -4 6 -2 8
4 4 6 -3 13 3 17 14 4 11 10 18 14 15 5 -2 13 14 20 35 6 22 17 40 23 40 6 0
5 -7 -3 -17 -13 -16 -12 -17 4 -4 9 8 15 16 13 19 -9 9 15 43 25 36 7 -4 7 1
0 15 -9 17 -9 21 1 19 7 -2 12 4 10 14 -2 12 2 16 13 12 11 -5 14 -2 9 10 -4
11 0 16 12 17 13 0 15 2 5 6 -10 4 -8 9 10 19 13 7 18 13 11 14 -10 0 -10 3 0
14 7 8 16 12 20 9 4 -2 5 3 2 11 -7 18 39 99 50 89 4 -4 4 0 1 9 -4 10 2 29
14 46 11 16 18 32 14 36 -3 3 1 6 10 6 10 0 14 5 11 15 -4 8 -1 15 6 15 6 0 9
4 6 9 -7 10 18 63 26 56 3 -3 4 8 3 25 -1 16 3 30 8 30 6 0 7 3 4 7 -4 3 -2
12 4 20 6 7 8 13 4 13 -4 0 -2 7 5 15 7 8 10 15 6 15 -4 0 0 13 8 29 9 16 12
31 9 34 -3 4 -1 12 4 19 6 7 9 21 8 31 -2 9 0 17 4 17 4 0 7 14 6 30 -1 17 1
30 5 30 9 0 12 61 14 262 1 97 4 180 8 183 4 4 4 13 1 21 -3 8 1 14 8 14 11 0
11 3 -1 10 -11 7 -11 10 -2 10 7 0 12 6 10 13 -4 19 22 58 34 51 7 -4 8 -3 4
5 -8 13 18 44 29 33 4 -4 5 0 3 8 -2 9 4 14 15 14 14 -2 15 1 6 12 -6 8 -7 14
-2 14 6 0 32 20 59 46 76 70 88 80 80 67 -5 -9 -2 -11 8 -7 9 3 13 10 10 15
-3 5 2 12 10 15 9 3 13 11 9 17 -3 6 -1 7 5 3 6 -4 20 2 32 14 11 11 25 20 32
20 6 0 8 3 5 7 -10 10 31 35 45 27 7 -4 8 -3 4 4 -4 7 -2 13 3 13 6 1 15 2 20
3 5 0 13 5 18 10 5 5 3 6 -4 2 -7 -4 -13 -3 -13 1 0 5 14 14 31 20 17 7 28 16
25 22 -3 5 9 14 28 21 19 6 37 18 40 26 3 8 10 13 15 9 5 -3 12 -1 16 5 4 6
11 7 17 4 7 -5 9 -2 6 8 -4 10 4 18 27 27 18 6 36 18 39 26 3 8 14 12 26 10
11 -2 18 0 15 6 -4 5 -1 9 5 9 6 0 8 5 4 13 -5 7 -2 7 10 -2 15 -12 17 -12 14
0 -2 8 4 13 15 13 10 -1 17 5 17 15 0 14 2 14 10 1 8 -13 10 -13 10 2 0 9 5
20 12 24 7 4 8 3 4 -4 -4 -7 -2 -12 3 -12 6 0 11 7 11 16 0 8 5 12 10 9 6 -3
10 -1 10 5 0 6 5 8 10 5 6 -3 10 -1 10 4 0 6 3 10 8 10 19 -3 42 2 41 9 -3 19
2 25 11 12 7 -11 10 -11 10 -2 0 8 5 10 13 6 8 -5 7 -2 -2 9 -12 15 -12 17 3
11 9 -3 16 -1 16 6 0 6 4 9 8 6 5 -3 18 3 30 14 14 14 22 16 25 7 4 -9 6 -9 6
1 1 7 6 10 11 7 6 -3 10 -2 10 4 0 6 7 7 17 4 12 -5 14 -3 8 7 -6 10 -4 12 8
7 10 -3 17 -2 17 4 0 6 5 7 10 4 6 -3 10 -2 10 4 0 6 7 7 17 4 11 -5 14 -3 8
6 -6 10 -2 11 15 6 15 -5 20 -4 16 4 -4 7 1 12 13 13 12 0 27 1 34 2 6 1 18 7
26 14 9 9 17 10 26 2 10 -8 16 -7 23 6 6 11 17 15 30 12 14 -4 19 -2 16 7 -3
8 3 12 18 10 13 -1 33 4 45 11 17 11 23 11 26 1 4 -9 6 -9 6 1 1 6 10 12 22
12 11 0 18 4 15 8 -3 5 1 9 9 9 8 0 11 -5 8 -11 -4 -6 0 -5 9 1 8 7 18 10 21
6 4 -3 7 -1 7 5 0 6 9 9 19 7 11 -2 22 3 25 12 5 12 9 13 21 3 12 -10 16 -9
21 3 3 9 15 14 30 12 13 -1 29 4 36 12 9 11 13 11 19 1 7 -10 9 -10 9 0 0 19
42 32 59 18 11 -8 13 -8 8 0 -6 11 19 29 36 26 4 -1 7 3 7 9 0 8 6 7 17 -2 9
-8 14 -9 10 -3 -10 17 23 27 39 13 11 -9 13 -9 9 2 -3 9 1 15 12 17 10 1 27 3
38 6 11 2 26 -2 34 -8 11 -8 13 -8 7 2 -8 14 3 16 23 3 9 -6 22 -6 31 -1 11 6
21 5 27 -1 6 -6 34 -11 62 -12 28 -1 51 -4 51 -7 0 -3 16 -6 37 -7 20 -1 40
-8 44 -15 7 -10 9 -10 9 0 0 10 7 9 33 -1 17 -8 38 -12 45 -9 7 2 20 1 30 -3
26 -11 60 -16 132 -18 36 -1 71 -6 79 -11 9 -6 12 -5 8 1 -4 6 26 10 83 9 50
-1 90 3 90 8 0 5 3 6 7 3 3 -4 13 -1 21 6 13 9 14 9 8 0 -4 -7 -2 -13 3 -13 6
0 11 5 11 10 0 6 5 10 11 10 6 0 23 12 38 28 22 22 25 30 16 39 -7 7 -16 9
-21 5 -4 -4 -4 1 -1 11 5 12 3 16 -5 11 -8 -5 -9 -2 -4 11 5 15 4 16 -9 5 -8
-7 -15 -8 -15 -2 0 5 -11 13 -25 16 -14 4 -25 12 -25 19 0 8 -4 7 -10 -3 -7
-11 -10 -11 -10 -2 0 7 -4 10 -10 7 -5 -3 -10 -1 -10 4 0 6 -13 11 -30 11 -16
0 -30 4 -30 9 0 5 -11 9 -25 9 -14 0 -35 8 -47 18 -12 11 -18 13 -13 5 5 -9 3
-12 -6 -9 -8 3 -13 11 -12 17 2 6 -2 11 -7 11 -6 0 -10 -6 -10 -12 0 -8 -3 -9
-8 -3 -11 15 -50 35 -69 35 -24 1 -55 25 -45 36 4 4 -2 2 -12 -6 -13 -10 -17
-10 -12 -2 5 8 1 12 -11 12 -10 0 -25 9 -33 20 -10 14 -16 16 -22 7 -5 -8 -8
-7 -8 5 0 9 -5 18 -12 20 -14 5 -20 38 -7 38 6 0 7 5 4 10 -7 11 35 31 48 23
4 -2 7 1 7 7 0 7 7 10 15 6 8 -3 15 -2 15 2 0 4 8 8 18 9 40 4 74 12 85 20 7
5 31 15 55 23 23 7 42 17 42 21 0 5 7 6 15 3 8 -4 15 -1 15 7 0 7 3 9 7 6 3
-4 13 -1 21 6 13 10 15 9 8 -3 -5 -9 -2 -8 7 2 11 14 16 15 27 5 10 -9 11 -9
6 1 -5 7 -1 12 9 12 21 0 46 25 37 36 -4 5 1 2 11 -5 12 -10 17 -10 17 -2 0 7
5 9 10 6 6 -3 10 0 10 9 0 15 16 16 40 1 13 -8 13 -7 1 8 -12 16 -8 22 12 18
5 -1 6 3 3 7 -8 13 28 44 39 35 5 -5 3 0 -4 9 -11 15 -10 17 8 13 12 -2 19 0
16 5 -3 5 -1 11 5 15 20 13 9 49 -25 80 -19 18 -37 30 -40 27 -3 -3 -5 4 -5
16 0 12 -4 22 -10 22 -5 0 -7 -8 -3 -17 5 -15 3 -15 -9 1 -9 11 -24 21 -34 23
-42 9 -389 3 -389 -7 0 -1 -40 -4 -90 -7 -125 -7 -125 -7 -125 -13 0 -9 -273
-6 -288 3 -7 5 -9 13 -6 19 5 8 1 9 -10 5 -10 -4 -15 -3 -11 3 3 6 -1 13 -10
16 -13 6 -14 8 -3 15 10 6 8 9 -7 9 -17 0 -17 2 -5 10 12 8 10 10 -8 10 -13 0
-20 4 -17 10 3 6 1 10 -5 10 -6 0 -8 5 -4 12 4 6 3 8 -4 4 -6 -3 -17 3 -25 14
-7 11 -17 17 -22 12 -5 -4 -5 -2 -1 5 3 6 2 14 -4 18 -6 4 -7 11 -4 17 4 7 2
8 -5 4 -6 -4 -8 -12 -5 -18 4 -7 2 -8 -4 -4 -7 4 -12 14 -12 22 0 8 -9 14 -21
14 -11 0 -17 5 -14 10 3 6 -4 10 -18 10 -14 0 -30 6 -36 14 -7 8 -20 12 -30 9
-11 -3 -21 2 -25 12 -5 14 -9 15 -21 5 -8 -7 -15 -9 -15 -4 0 5 -45 9 -100 9
-55 0 -100 -4 -100 -9z m-130 -371 c16 10 70 12 70 3 0 -5 4 -7 8 -4 15 9 72
-26 72 -45 0 -11 4 -19 9 -19 11 0 9 -19 -3 -39 -7 -10 -5 -12 3 -6 10 6 11 3
3 -11 -5 -11 -7 -25 -4 -33 3 -8 0 -11 -7 -7 -10 7 -16 -6 -12 -28 1 -5 -5 -6
-13 -3 -11 4 -14 0 -11 -15 3 -11 2 -18 -2 -15 -3 4 -15 1 -27 -5 -27 -15 -86
-18 -108 -6 -12 6 -18 5 -18 -2 0 -6 -11 0 -24 12 -18 18 -21 26 -12 37 7 9 7
12 1 9 -15 -9 -35 26 -25 43 5 8 4 19 -2 26 -7 9 -7 13 0 13 6 0 12 10 14 23
2 12 9 21 16 19 8 -1 11 2 6 9 -4 8 4 22 22 36 16 12 31 18 32 13 2 -6 7 -8
12 -5z m-510 -409 c0 -3 -4 -8 -10 -11 -5 -3 -10 -1 -10 4 0 6 5 11 10 11 6 0
10 -2 10 -4z m-270 -196 c0 -5 -5 -10 -11 -10 -5 0 -7 5 -4 10 3 6 8 10 11 10
2 0 4 -4 4 -10z m-720 -400 c0 -5 -5 -10 -11 -10 -5 0 -7 5 -4 10 3 6 8 10 11
10 2 0 4 -4 4 -10z m-320 -160 c0 -5 -5 -10 -11 -10 -5 0 -7 5 -4 10 3 6 8 10
11 10 2 0 4 -4 4 -10z m-3759 -447 c13 -16 12 -17 -3 -4 -10 7 -18 15 -18 17
0 8 8 3 21 -13z"/>
<path d="M9725 8049 c4 -10 -5 -15 -35 -16 -22 -2 -50 -7 -60 -13 -14 -7 -20
-7 -20 0 0 5 -5 10 -11 10 -5 0 -7 -4 -4 -10 4 -6 -7 -11 -24 -11 -30 -1 -48
-4 -53 -8 -2 -1 -18 -4 -37 -7 -19 -2 -46 -7 -60 -10 -14 -3 -36 -7 -49 -9
-24 -3 -62 -40 -62 -58 0 -6 9 -21 21 -33 17 -18 26 -21 49 -14 18 5 32 4 40
-3 10 -9 11 -9 7 -1 -4 7 0 15 9 18 10 4 13 2 8 -7 -6 -9 -4 -9 7 -2 8 6 28
12 44 14 17 2 34 8 38 15 6 8 10 8 14 -1 3 -9 10 -10 22 -3 10 5 35 10 55 12
20 1 36 7 36 13 0 5 5 3 10 -5 5 -8 10 -10 10 -4 0 6 6 11 13 12 6 1 26 3 42
5 17 2 29 9 27 16 -2 9 3 9 17 1 24 -12 42 -13 22 -1 -11 7 -10 10 6 15 14 4
20 16 21 36 0 17 -4 28 -9 25 -5 -4 -9 0 -9 9 0 10 -10 14 -32 12 -18 -1 -39
2 -46 8 -9 6 -11 5 -7 -5z"/>
<path d="M5295 7970 c-2 -4 -14 -6 -27 -5 -12 1 -33 -4 -47 -11 -13 -7 -28
-11 -33 -8 -4 3 -8 0 -8 -5 0 -6 -6 -11 -14 -11 -24 0 -111 -86 -139 -137 -28
-53 -38 -92 -42 -168 -3 -75 14 -138 65 -235 22 -41 121 -158 134 -159 5 -1
24 -13 43 -27 44 -34 132 -72 161 -69 13 1 25 -1 27 -5 4 -6 40 -3 88 8 72 16
164 105 174 167 2 11 8 21 13 23 5 2 6 10 4 17 -3 8 -2 20 2 27 9 14 11 43 14
148 1 84 -6 121 -41 198 -11 24 -25 51 -32 59 -24 31 -93 99 -125 122 -38 28
-112 63 -112 53 0 -4 -4 -2 -8 4 -8 13 -90 25 -97 14z m43 -207 c42 -43 130
-248 127 -298 -1 -29 -16 -67 -22 -61 -4 3 -12 -2 -19 -12 -8 -10 -13 -12 -14
-5 0 7 -6 10 -14 7 -21 -8 -98 94 -121 159 -10 28 -22 57 -27 63 -10 13 -21
75 -20 118 0 58 64 74 110 29z"/>
<path d="M1085 7952 c-16 -8 -35 -20 -41 -26 -6 -6 -21 -18 -33 -26 -11 -8
-21 -20 -21 -27 0 -7 -3 -13 -8 -13 -17 0 -44 -86 -102 -315 -31 -127 -34
-281 -6 -335 77 -144 306 -282 458 -274 85 4 173 78 183 152 2 15 4 27 5 27 3
0 10 42 16 97 7 61 -6 94 -33 84 -7 -3 -13 -1 -13 5 0 6 -4 8 -9 5 -5 -3 -12
1 -15 10 -3 8 -10 13 -14 10 -5 -3 -46 10 -92 30 -46 19 -84 33 -85 32 -2 -2
-5 -28 -8 -58 -3 -30 -8 -69 -12 -86 -6 -28 -4 -33 24 -45 35 -16 38 -28 14
-58 -20 -24 -83 -40 -83 -21 0 6 -4 8 -10 5 -5 -3 -10 -1 -10 5 0 7 -6 10 -13
7 -18 -7 -54 69 -51 108 5 70 19 177 38 290 11 62 31 108 52 115 26 10 64 2
64 -13 0 -6 3 -8 6 -4 14 14 76 -84 89 -141 4 -21 15 -32 43 -42 20 -8 40 -13
45 -12 4 1 7 -3 7 -9 0 -6 7 -9 15 -5 8 3 15 1 15 -4 0 -6 6 -10 13 -10 9 0
12 15 10 53 -2 28 -5 58 -8 65 -2 6 0 12 6 12 6 0 7 4 4 10 -3 5 -7 63 -9 129
-4 120 -9 146 -27 135 -5 -3 -15 -1 -22 4 -7 5 -24 12 -39 16 -14 3 -33 9 -42
12 -14 5 -16 1 -12 -27 l6 -34 -23 30 c-33 44 -81 89 -114 105 -15 8 -30 18
-33 22 -4 4 -23 9 -43 10 -20 2 -37 6 -37 11 0 10 -10 8 -45 -11z"/>
<path d="M4818 7805 c-3 -3 -14 -7 -24 -9 -11 -3 -54 -14 -96 -26 -77 -21
-101 -27 -148 -36 -43 -8 -47 -12 -54 -46 -10 -57 -20 -148 -25 -238 -1 -21
-6 -16 -30 30 -15 30 -35 69 -44 85 -8 17 -25 52 -36 78 -12 26 -25 46 -29 43
-4 -2 -28 -7 -52 -10 -25 -3 -58 -8 -75 -12 -16 -3 -41 -7 -55 -8 -14 -2 -36
-6 -50 -9 -14 -3 -42 -9 -63 -12 l-37 -6 6 -87 c4 -54 11 -93 20 -102 12 -12
14 -12 14 0 0 11 3 11 12 2 6 -6 24 -71 39 -144 15 -73 34 -152 43 -175 8 -24
13 -43 9 -43 -3 0 1 -7 8 -17 8 -9 13 -18 12 -19 -5 -8 10 -65 18 -70 17 -10
9 -32 -15 -38 l-24 -6 56 -139 c40 -99 62 -141 75 -145 14 -3 17 -1 12 12 -5
13 -2 12 15 -3 16 -14 21 -16 18 -5 -2 9 4 14 15 14 9 -1 17 2 17 7 0 5 3 8 8
7 7 -2 58 8 95 18 9 3 15 10 12 15 -3 5 1 6 9 3 9 -3 16 -4 16 -1 0 6 -27 73
-50 122 -10 22 -29 67 -42 99 -15 37 -30 60 -41 62 -9 1 -17 -3 -17 -9 0 -33
-42 63 -46 103 0 9 -6 25 -11 35 -6 11 -25 79 -42 150 -18 72 -36 142 -41 158
-4 15 -5 27 -1 27 8 0 51 -82 51 -98 0 -6 3 -12 8 -14 4 -1 25 -39 48 -83 101
-197 297 -497 327 -501 9 -1 17 2 17 8 0 6 7 7 16 4 10 -4 13 -2 8 6 -5 7 -2
9 8 5 24 -9 27 0 16 46 -5 23 -11 49 -13 57 -2 8 -9 38 -15 65 -6 28 -14 60
-16 73 -2 12 -7 34 -10 50 -3 15 -7 41 -9 57 -3 17 -7 48 -11 70 -10 61 -12
375 -2 375 4 0 9 -10 10 -22 1 -22 4 -38 8 -48 1 -3 3 -12 5 -20 5 -26 56
-204 62 -220 4 -8 7 -17 8 -20 1 -3 7 -18 14 -35 19 -46 27 -100 12 -91 -15
10 -27 -22 -13 -36 6 -6 8 -17 5 -24 -3 -8 0 -14 6 -14 6 0 11 -4 11 -10 0 -5
21 -54 46 -107 30 -64 48 -93 53 -84 5 7 12 12 17 12 20 -2 74 21 74 31 0 6 3
9 6 5 3 -3 21 3 40 14 19 10 41 19 49 19 8 0 15 4 15 10 0 5 3 9 8 8 8 -2 82
22 82 27 0 10 -122 255 -129 260 -5 3 -12 1 -16 -4 -6 -11 -35 -3 -35 9 0 5
-5 21 -12 37 -6 15 -12 33 -14 38 -2 6 -17 48 -34 95 -27 76 -54 164 -65 213
-3 11 2 17 14 17 13 0 19 8 19 28 0 15 -3 32 -6 37 -4 6 -8 19 -10 30 -2 11
-5 27 -7 35 -2 8 -4 21 -4 28 -1 12 -13 16 -23 7z"/>
<path d="M1614 7642 c5 -137 10 -164 31 -156 7 3 15 -1 18 -9 6 -16 0 -403 -7
-432 -2 -11 -5 -34 -5 -52 -1 -28 -4 -32 -28 -30 -28 2 -30 -1 -48 -97 -3 -16
-9 -34 -13 -40 -20 -32 4 -50 123 -87 22 -7 45 -17 52 -22 7 -5 16 -6 22 -3 5
3 11 -1 14 -9 4 -8 15 -12 26 -10 11 2 25 -3 31 -11 7 -7 16 -12 20 -9 5 3 15
-1 23 -9 8 -8 17 -12 21 -9 3 3 25 -1 48 -9 24 -9 66 -21 93 -28 28 -7 57 -14
65 -17 15 -6 40 -11 75 -15 19 -3 20 2 18 146 -1 81 -4 150 -6 152 -2 3 -15 7
-28 10 -13 3 -31 7 -39 9 -8 2 -28 4 -43 4 -16 1 -26 5 -22 11 3 6 -1 7 -9 4
-11 -4 -16 -19 -16 -44 l0 -38 -34 8 c-19 4 -37 5 -40 2 -4 -3 -6 0 -6 7 0 7
-3 10 -7 8 -5 -3 -18 -1 -30 4 -21 7 -22 14 -19 79 3 78 7 86 33 75 10 -5 20
-9 23 -9 3 -1 11 -5 19 -10 10 -6 12 -5 7 2 -5 8 1 11 16 9 19 -2 23 2 21 28
-1 17 -2 65 -4 108 -2 71 -4 78 -20 74 -11 -3 -17 -1 -14 3 3 5 1 11 -5 15 -5
3 -10 1 -10 -4 0 -15 -22 -9 -37 9 -9 11 -12 12 -13 2 0 -7 -4 -10 -10 -7 -5
3 -10 44 -10 90 l0 83 38 -9 c20 -6 44 -12 52 -14 8 -2 21 -4 27 -4 8 -1 11
-12 9 -30 -2 -16 2 -37 8 -47 10 -18 20 -21 89 -26 15 -2 27 -5 27 -9 0 -3 7
-6 15 -6 13 0 15 14 10 96 -3 53 -8 134 -10 180 -2 46 -7 86 -10 89 -3 3 -16
7 -28 9 -12 2 -44 8 -71 14 -28 7 -59 13 -70 14 -12 1 -21 4 -21 5 0 1 -11 4
-25 6 -39 5 -64 11 -80 17 -8 4 -24 8 -35 10 -11 2 -30 9 -42 15 -19 10 -23
10 -23 0 -1 -9 -4 -9 -13 2 -7 9 -21 15 -32 14 -11 0 -32 3 -45 9 -53 21 -52
25 -46 -111z"/>
<path d="M9417 7733 c-2 -1 -20 -3 -41 -5 -20 -1 -40 -6 -43 -12 -3 -5 -1 -6
5 -2 7 4 12 3 12 -3 0 -5 -7 -14 -16 -19 -14 -8 -14 -10 0 -25 19 -19 21 -31
4 -21 -7 4 -10 3 -5 -1 12 -14 42 -16 212 -17 184 -1 234 2 242 16 3 5 1 6 -5
2 -7 -4 -12 -2 -12 4 0 6 6 13 14 16 8 3 12 13 9 25 -3 10 -9 16 -14 13 -5 -3
-9 2 -9 10 0 9 -3 16 -7 17 -19 2 -344 4 -346 2z"/>
<path d="M2237 7623 c-4 -7 -1 -168 3 -168 1 0 3 -22 4 -48 3 -46 19 -72 38
-61 4 3 9 -3 9 -13 1 -10 3 -36 4 -58 2 -22 4 -40 4 -40 1 0 4 -36 6 -80 3
-44 7 -114 10 -155 17 -224 17 -221 -9 -216 l-23 4 5 -116 c2 -65 8 -121 13
-127 6 -5 9 -4 9 4 0 10 3 11 13 2 8 -6 17 -8 20 -4 4 3 7 0 7 -8 0 -11 2 -11
10 1 5 8 10 10 10 4 0 -5 19 -11 42 -13 23 -1 45 -4 49 -7 4 -2 27 -7 51 -10
71 -9 90 -13 96 -18 3 -3 11 -1 19 5 7 7 13 7 13 2 0 -6 12 -11 28 -12 73 -5
117 -9 122 -11 14 -6 36 -4 42 5 5 6 8 5 8 -4 0 -11 3 -11 17 0 11 10 14 10 9
2 -4 -8 -1 -13 8 -13 9 0 16 6 16 13 0 9 3 8 9 -2 16 -25 18 9 4 73 -7 34 -15
75 -17 91 -3 17 -10 45 -15 64 -6 18 -10 36 -9 40 6 49 -25 107 -43 79 -7 -10
-9 -10 -9 2 0 13 -1 13 -10 0 -9 -13 -10 -13 -10 0 0 13 -1 13 -10 0 -5 -8
-10 -10 -10 -3 0 12 -17 12 -37 0 -7 -5 -13 -4 -13 2 0 6 -6 8 -13 5 -9 -3
-12 -19 -10 -50 3 -42 2 -44 -16 -34 -14 7 -22 7 -27 -2 -5 -7 -3 -8 6 -3 9 6
11 4 5 -4 -5 -9 -10 -10 -18 -2 -6 6 -23 11 -38 11 -31 0 -42 12 -45 50 -1 14
-5 46 -9 73 -3 26 -3 48 2 48 34 5 53 5 53 0 0 -4 12 -6 28 -5 15 1 26 6 25
12 -2 6 -5 35 -8 64 -15 159 -16 162 -51 155 -14 -2 -27 -1 -29 3 -3 5 -14 6
-25 3 -11 -3 -20 -1 -21 3 -7 71 -9 95 -13 126 -3 21 -1 40 4 43 6 3 10 0 10
-7 0 -9 3 -9 10 2 9 13 10 13 10 0 0 -13 1 -13 10 0 5 8 10 10 10 3 0 -6 11
-10 24 -9 35 4 45 -5 48 -46 3 -42 8 -44 93 -43 l60 0 -3 50 c-1 28 -4 73 -6
100 -2 28 -5 82 -6 122 -2 42 -7 73 -14 76 -6 2 -35 3 -63 2 -30 0 -53 4 -53
10 0 5 -4 4 -9 -4 -6 -9 -10 -10 -16 -2 -5 9 -10 9 -21 0 -8 -6 -14 -8 -14 -3
0 8 -49 15 -127 18 -18 0 -33 3 -33 6 0 3 -28 7 -62 9 -88 4 -102 6 -115 14
-6 4 -14 4 -16 0z"/>
<path d="M3829 7609 c-20 -3 -44 -4 -53 -3 -9 1 -16 -2 -16 -8 0 -7 -5 -7 -13
1 -8 6 -17 8 -21 4 -7 -8 -18 -9 -131 -17 -38 -2 -78 -7 -87 -11 -10 -4 -18
-3 -18 2 0 5 -10 9 -22 7 -13 -1 -23 -3 -23 -4 0 -1 -12 -3 -26 -4 -30 -3 -51
-14 -45 -24 2 -4 7 -50 10 -102 8 -102 11 -114 31 -106 14 5 27 -16 30 -49 1
-11 5 -42 10 -70 4 -27 9 -61 11 -75 2 -22 13 -77 20 -105 6 -28 17 -74 24
-110 4 -22 15 -62 24 -90 19 -61 19 -58 2 -52 -22 9 -36 -12 -26 -39 5 -13 7
-24 4 -24 -4 0 -2 -6 3 -12 5 -7 20 -47 32 -88 33 -108 41 -128 56 -134 8 -3
12 0 9 7 -3 8 10 12 41 11 25 0 57 5 70 12 14 7 27 9 30 4 3 -4 14 -6 25 -3
11 3 17 10 13 17 -4 6 1 4 12 -4 22 -18 18 -18 38 -2 9 8 21 11 27 7 5 -3 10
-2 10 2 0 5 8 9 18 10 9 1 31 4 47 7 17 3 41 8 55 10 14 2 24 10 22 17 -1 8 5
5 13 -5 14 -18 15 -18 15 -2 0 9 5 14 10 11 6 -4 16 -3 23 2 7 5 24 9 40 8 15
0 27 3 27 8 0 4 5 5 10 2 13 -8 7 21 -13 65 -24 53 -66 163 -90 240 -20 64
-24 70 -49 70 -15 0 -29 -4 -33 -10 -3 -5 -12 -7 -20 -3 -8 3 -15 0 -15 -6 0
-6 -5 -11 -11 -11 -5 0 -7 5 -4 10 3 6 1 10 -4 10 -6 0 -11 -5 -11 -11 0 -5
-4 -8 -9 -5 -14 9 -21 -22 -11 -50 11 -29 13 -61 3 -51 -3 4 -12 2 -20 -4 -9
-8 -13 -8 -13 -1 0 6 -7 9 -16 5 -13 -5 -13 -7 -2 -14 18 -12 5 -11 -26 1 -21
8 -24 7 -19 -8 5 -16 4 -16 -11 -1 -10 9 -19 22 -20 30 -2 8 -6 21 -9 29 -3 8
-12 38 -20 65 -15 55 -19 51 43 57 11 1 20 6 20 11 0 5 9 7 19 4 22 -5 22 -8
-6 124 l-18 86 -32 -1 c-18 -1 -33 -4 -33 -8 0 -8 -39 -2 -48 7 -3 3 -7 13 -8
23 -2 9 -5 36 -9 59 -5 36 -3 42 14 48 12 3 25 3 31 0 5 -3 10 -1 10 5 0 7 6
10 13 7 6 -2 22 0 34 4 20 7 22 4 25 -29 2 -30 7 -37 23 -35 11 1 42 5 69 8
58 6 69 12 62 31 -3 8 -9 49 -12 92 -4 42 -8 84 -10 92 -1 8 -3 27 -3 41 -1
29 -14 31 -92 18z"/>
<path d="M2990 7570 c0 -6 -5 -10 -12 -8 -15 5 -49 -22 -42 -34 3 -4 -2 -8
-11 -8 -9 0 -13 -4 -10 -10 3 -5 2 -10 -3 -10 -9 0 -17 -18 -31 -70 -3 -14 -6
-68 -6 -120 0 -100 22 -191 57 -242 10 -14 18 -29 18 -33 0 -11 83 -88 131
-120 24 -16 49 -33 54 -38 6 -4 22 -17 38 -28 34 -26 60 -85 52 -119 -9 -33
-22 -40 -55 -29 -29 11 -57 44 -84 101 -17 36 -28 41 -55 24 -10 -7 -12 -5 -6
4 5 9 2 10 -14 5 -13 -4 -28 -1 -37 6 -12 10 -13 9 -8 -5 5 -13 2 -17 -12 -14
-13 2 -18 -2 -15 -12 5 -24 53 -253 57 -275 8 -44 10 -55 15 -59 3 -3 37 -6
76 -8 l72 -3 -5 25 c-3 14 -8 31 -10 39 -4 13 19 -2 46 -29 3 -3 19 -11 35
-19 17 -7 37 -17 46 -21 9 -5 22 -4 30 0 8 5 19 4 28 -3 12 -9 13 -9 7 1 -4 7
-1 12 9 12 18 0 68 47 74 70 2 8 7 26 11 40 11 41 4 180 -15 250 -9 36 -34
102 -55 148 -31 66 -53 96 -107 147 -95 90 -117 110 -123 107 -3 -1 -22 15
-42 34 -29 27 -38 44 -38 67 0 39 8 52 36 59 24 6 62 -35 80 -86 11 -31 41
-42 56 -21 5 6 8 5 8 -4 0 -11 3 -11 15 -1 10 8 15 9 15 1 0 -7 7 -8 23 0 22
10 23 13 15 87 -5 42 -9 103 -10 135 -1 31 -4 57 -7 58 -3 1 -30 2 -59 3 -55
3 -75 -11 -64 -44 2 -8 -4 -5 -15 8 -11 12 -25 22 -31 22 -6 0 -12 4 -14 10
-5 15 -108 24 -108 10z"/>
<path d="M9310 7457 c-16 -13 -17 -18 -5 -54 4 -13 11 -20 16 -17 5 3 9 0 9
-5 0 -6 9 -11 19 -11 11 0 21 -5 23 -11 2 -5 12 -12 23 -13 11 -2 19 -9 17
-17 -2 -9 1 -9 14 2 16 12 17 12 11 -3 -3 -10 -2 -18 3 -18 6 0 10 5 10 11 0
8 4 9 13 0 8 -6 17 -8 20 -4 4 3 7 1 7 -5 0 -6 7 -9 17 -5 12 5 14 3 8 -8 -6
-11 -5 -12 5 -2 10 10 19 8 39 -5 14 -10 36 -17 49 -16 12 1 22 -2 22 -6 0 -5
9 -6 20 -3 11 3 20 1 20 -4 0 -11 42 -9 61 3 8 4 9 3 5 -4 -11 -19 9 -14 26 6
34 39 26 82 -16 82 -9 0 -16 6 -16 13 0 8 -4 7 -10 -3 -5 -8 -10 -10 -10 -3 0
6 -11 10 -25 8 -14 -1 -28 2 -31 7 -3 5 -15 6 -26 2 -13 -4 -18 -2 -14 4 3 5
-1 12 -9 16 -8 3 -15 0 -15 -6 0 -6 -10 -3 -22 8 -14 12 -19 14 -13 4 6 -12 5
-13 -6 -2 -7 6 -21 12 -31 12 -10 0 -18 4 -18 8 0 4 -11 9 -23 10 -26 2 -79
26 -72 33 10 11 -82 7 -95 -4z"/>
<path d="M1894 4171 c7 -11 46 -35 46 -28 0 3 -12 12 -26 22 -15 9 -23 12 -20
6z"/>
<path d="M3275 1760 c3 -5 8 -10 11 -10 2 0 4 5 4 10 0 6 -5 10 -11 10 -5 0
-7 -4 -4 -10z"/>
</g>
</svg>
